<svg viewBox="0 0 480 300" xmlns="http://www.w3.org/2000/svg" font-family="Arial, Helvetica, sans-serif">
  <defs>
    <linearGradient id="chart-fill" x1="0" y1="0" x2="0" y2="1">
      <stop offset="0%" stop-color="#4F8CFF" stop-opacity=".35"/>
      <stop offset="100%" stop-color="#4F8CFF" stop-opacity="0"/>
    </linearGradient>
  </defs>
  <rect width="480" height="300" fill="#0B1020"/>

  <rect x="0" y="0" width="64" height="300" fill="#121A2B"/>
  <line x1="64" y1="0" x2="64" y2="300" stroke="#26324A" stroke-width="1"/>
  <circle cx="32" cy="34" r="7" fill="#4F8CFF"/>
  <circle cx="32" cy="64" r="6" fill="#26324A"/>
  <circle cx="32" cy="92" r="6" fill="#26324A"/>
  <circle cx="32" cy="120" r="6" fill="#26324A"/>

  <rect x="64" y="0" width="416" height="42" fill="#0d1424"/>
  <line x1="64" y1="42" x2="480" y2="42" stroke="#26324A" stroke-width="1"/>
  <text x="86" y="26" fill="#F5F7FA" font-size="13" font-weight="700">IAM Console</text>
  <circle cx="452" cy="21" r="10" fill="#26324A"/>

  <g font-family="'JetBrains Mono', monospace">
    <rect x="86" y="60" width="118" height="66" rx="8" fill="#121A2B" stroke="#26324A"/>
    <text x="100" y="82" fill="#AAB3C5" font-size="9" letter-spacing="1">ÓRDENES</text>
    <text x="100" y="108" fill="#4F8CFF" font-size="20" font-weight="700">482</text>

    <rect x="216" y="60" width="118" height="66" rx="8" fill="#121A2B" stroke="#26324A"/>
    <text x="230" y="82" fill="#AAB3C5" font-size="9" letter-spacing="1">COTIZACIONES</text>
    <text x="230" y="108" fill="#8B5CF6" font-size="20" font-weight="700">129</text>

    <rect x="346" y="60" width="118" height="66" rx="8" fill="#121A2B" stroke="#26324A"/>
    <text x="360" y="82" fill="#AAB3C5" font-size="9" letter-spacing="1">INVENTARIO</text>
    <text x="360" y="108" fill="#22D3EE" font-size="20" font-weight="700">3,014</text>
  </g>

  <rect x="86" y="140" width="378" height="128" rx="8" fill="#121A2B" stroke="#26324A"/>
  <line x1="104" y1="160" x2="104" y2="248" stroke="#26324A" stroke-width="1"/>
  <line x1="104" y1="248" x2="446" y2="248" stroke="#26324A" stroke-width="1"/>
  <path d="M104 230 L150 210 L196 220 L242 180 L288 195 L334 155 L380 170 L426 140 L446 150 L446 248 L104 248 Z" fill="url(#chart-fill)"/>
  <path d="M104 230 L150 210 L196 220 L242 180 L288 195 L334 155 L380 170 L426 140 L446 150" fill="none" stroke="#4F8CFF" stroke-width="2.5" stroke-linecap="round" stroke-linejoin="round"/>
  <circle cx="426" cy="140" r="4" fill="#22D3EE"/>
</svg>
