<svg xmlns="http://www.w3.org/2000/svg" viewBox="0 0 24 24" fill="currentColor"><path d="M23.546 10.93L13.067.452c-.604-.603-1.582-.603-2.188 0L8.708 2.627l2.76 2.76c.645-.215 1.383-.07 1.894.441.516.515.658 1.258.438 1.9l2.658 2.66c.645-.223 1.387-.078 1.9.435.721.72.721 1.884 0 2.604-.719.719-1.881.719-2.6 0-.539-.541-.674-1.337-.404-2.004L9.817 9.431c-.066.003-.133.005-.2.005-.267 0-.53-.053-.779-.154l-2.654 2.653c.223.644.078 1.387-.435 1.9-.721.721-1.884.721-2.604 0-.721-.72-.721-1.884 0-2.604.442-.442 1.087-.659 1.696-.659.608 0 1.254.216 1.696.659l2.862-2.861c-.223-.647-.082-1.389.432-1.903l-.002-.002 2.638-2.637c.605.603 1.582.603 2.188 0l10.48-10.477c.603-.604.603-1.582 0-2.187z"/></svg>
