<svg xmlns="http://www.w3.org/2000/svg" viewBox="0 0 24 24" fill="currentColor"><path d="M3 3h18v18H3V3zm16.525 13.707c-.131-.821-.666-1.511-2.252-2.155-.552-.259-1.165-.438-1.349-.854-.068-.248-.08-.378-.082-.653 0-.494.301-.764.913-.764.413 0 .711.103.966.324.255.221.453.554.593.964.117.359.194.847.267 1.271.073.424.14.882.194 1.345h1.793c-.024-.509-.063-1.024-.11-1.536-.048-.512-.11-1.017-.185-1.514-.075-.497-.166-.979-.276-1.441-.11-.462-.248-.895-.414-1.288-.166-.393-.371-.729-.615-1.007-.245-.279-.537-.489-.879-.627-.341-.139-.744-.208-1.209-.208-1.059 0-1.871.364-2.436 1.091-.565.727-.803 1.667-.712 2.82.12 1.273.69 2.159 1.712 2.656 1.023.497 2.358.766 4.006.806.744.02 1.304.132 1.681.336.377.204.566.481.566.83 0 .405-.152.747-.456 1.026-.304.279-.744.513-1.32.701-.576.189-1.272.333-2.088.432-.816.099-1.728.148-2.736.148-1.272-.024-2.328-.276-3.168-.756-.84-.48-1.488-1.104-1.944-1.872-.456-.768-.708-1.644-.756-2.628z"/></svg>
