<svg xmlns="http://www.w3.org/2000/svg" viewBox="0 0 24 24" fill="currentColor"><path d="M11.998 24c-.321 0-.641-.084-.922-.247l-2.936-1.737c-.438-.245-.224-.332-.08-.383.585-.203.703-.25 1.328-.604.065-.038.151-.023.218.017l2.256 1.339a.29.29 0 0 0 .272 0l8.795-5.076a.277.277 0 0 0 .135-.238V6.921a.283.283 0 0 0-.138-.242l-8.791-5.072a.278.278 0 0 0-.271 0L3.075 6.68a.284.284 0 0 0-.139.241v10.15c0 .098.053.189.139.242l2.409 1.392c1.307.654 2.108-.116 2.108-.89V7.787c0-.142.114-.253.256-.253h1.115c.139 0 .255.111.255.253v10.021c0 1.745-.95 2.745-2.604 2.745-.505 0-.909 0-2.026-.551L2.28 18.675a2.327 2.327 0 0 1-1.143-2.002V6.921c0-.823.445-1.58 1.161-1.992l8.795-5.082c.72-.414 1.584-.414 2.301 0l8.794 5.082c.718.412 1.163 1.169 1.163 1.992v9.752c0 .823-.445 1.58-1.161 1.992l-8.795 5.078c-.28.163-.6.247-.922.247zm.795-6.09c0 .138-.112.25-.256.25h-1.114a.253.253 0 0 1-.256-.25v-3.816c0-.138.114-.25.256-.25h1.114c.139 0 .255.112.255.25v3.816zm0-5.168c0 .137-.112.25-.256.25h-1.114a.253.253 0 0 1-.256-.25V8.624c0-.138.114-.25.256-.25h1.114c.139 0 .255.112.255.25v4.068z"/></svg>
