<svg xmlns="http://www.w3.org/2000/svg" viewBox="0 0 24 24" fill="currentColor"><path d="M12 0C5.373 0 0 5.373 0 12s5.373 12 12 12 12-5.373 12-12S18.627 0 12 0zm0 2.4a9.6 9.6 0 1 1 0 19.2 9.6 9.6 0 0 1 0-19.2zm0 1.92a7.68 7.68 0 0 0-7.68 7.68c0 1.488.432 2.88 1.176 4.056l2.736-4.752 2.352 1.296-2.064 3.456a7.598 7.598 0 0 0 3.456.816 7.598 7.598 0 0 0 3.456-.816l-2.064-3.456 2.352-1.296 2.736 4.752A7.68 7.68 0 0 0 12 4.32zm0 3.84a3.84 3.84 0 1 0 0 7.68 3.84 3.84 0 0 0 0-7.68zm0 1.92a1.92 1.92 0 1 1 0 3.84 1.92 1.92 0 0 1 0-3.84z"/></svg>
