<svg xmlns="http://www.w3.org/2000/svg" viewBox="0 0 24 24" fill="currentColor"><path d="M12.001 4.8c-3.2 0-5.2 1.6-6 4.8 1.2-1.6 2.6-2.2 4.2-1.8.91.24 1.56 1.03 2.27 1.87 1.15 1.38 2.48 2.97 5.13 2.97 3.2 0 5.2-1.6 6-4.8-1.2 1.6-2.6 2.2-4.2 1.8-.91-.24-1.56-1.03-2.27-1.87-1.15-1.38-2.48-2.97-5.13-2.97-3.2 0-5.2 1.6-6 4.8 1.2-1.6 2.6-2.2 4.2-1.8.91.24 1.56 1.03 2.27 1.87 1.15 1.38 2.48 2.97 5.13 2.97 3.2 0 5.2-1.6 6-4.8-1.2 1.6-2.6 2.2-4.2 1.8-.91-.24-1.56-1.03-2.27-1.87C15.341 7.17 14.011 5.57 12.001 4.8zM6.001 12c-3.2 0-5.2 1.6-6 4.8 1.2-1.6 2.6-2.2 4.2-1.8.91.24 1.56 1.03 2.27 1.87 1.15 1.38 2.48 2.97 5.13 2.97 3.2 0 5.2-1.6 6-4.8-1.2 1.6-2.6 2.2-4.2 1.8-.91-.24-1.56-1.03-2.27-1.87-1.15-1.38-2.48-2.97-5.13-2.97z"/></svg>
