<svg xmlns="http://www.w3.org/2000/svg" viewBox="0 0 24 24" fill="currentColor"><path d="M3 3h18v18H3V3zm10.71 14.86c.5.98 1.51 1.73 3.09 1.73 1.6 0 2.8-.83 2.8-2.36 0-1.41-.81-2.04-2.25-2.66l-.42-.18c-.73-.31-1.04-.52-1.04-1.02 0-.41.31-.73.81-.73.48 0 .8.21 1.09.73l1.31-.87c-.55-.96-1.33-1.33-2.4-1.33-1.51 0-2.48 1.21-2.48 2.31 0 1.38.81 2.03 2.03 2.55l.42.18c.78.34 1.24.55 1.24 1.06 0 .48-.45.83-1.15.83-.83 0-1.31-.43-1.67-1.03l-1.38.92c.58 1.09 1.49 1.56 2.72 1.56 1.73 0 2.79-.83 2.79-2.43-.01-1.79-1.2-2.34-2.49-2.75l-.42-.18c-.71-.3-1.14-.5-1.14-1.01 0-.41.35-.69.88-.69.5 0 .86.23 1.15.73l1.32-.89c-.52-.95-1.27-1.34-2.26-1.34z"/></svg>
